<svg width="147" height="35" viewBox="0 0 147 35" fill="none" xmlns="http://www.w3.org/2000/svg">
<path fill-rule="evenodd" clip-rule="evenodd" d="M5.68089 0C2.54342 0 0 2.61167 0 5.83333V29.1667C0 32.3883 2.54342 35 5.68089 35H28.4045C31.5419 35 34.0854 32.3883 34.0854 29.1667V5.83333C34.0854 2.61167 31.5419 0 28.4045 0H5.68089ZM17.0427 33.5417C17.0427 24.6821 24.0371 17.5 32.6651 17.5C24.0371 17.5 17.0427 10.3179 17.0427 1.45833C17.0427 10.3179 10.0483 17.5 1.42022 17.5C10.0483 17.5 17.0427 24.6821 17.0427 33.5417Z" fill="white"/>
<path d="M68.7598 11.9898H64.9833C64.8381 11.1612 64.5677 10.4321 64.1723 9.80232C63.7769 9.17258 63.2927 8.63814 62.7198 8.19898C62.1469 7.75982 61.5054 7.42838 60.7953 7.20466C60.0932 6.98094 59.3468 6.86908 58.556 6.86908C57.1277 6.86908 55.8487 7.23781 54.719 7.97526C53.5973 8.71271 52.7097 9.79403 52.056 11.2192C51.4105 12.6444 51.0877 14.3845 51.0877 16.4394C51.0877 18.5109 51.4105 20.2592 52.056 21.6844C52.7097 23.1096 53.6013 24.1868 54.7311 24.916C55.8608 25.6451 57.1317 26.0097 58.5439 26.0097C59.3266 26.0097 60.069 25.902 60.771 25.6866C61.4812 25.4628 62.1227 25.1355 62.6956 24.7047C63.2685 24.2738 63.7527 23.7476 64.1481 23.1262C64.5516 22.4964 64.83 21.7756 64.9833 20.9635L68.7598 20.976C68.5581 22.2272 68.1667 23.3789 67.5857 24.4312C67.0128 25.4753 66.2744 26.3784 65.3706 27.1407C64.4749 27.8948 63.4501 28.4789 62.2962 28.8932C61.1422 29.3075 59.8834 29.5147 58.5197 29.5147C56.3732 29.5147 54.4607 28.9927 52.7823 27.9486C51.1038 26.8963 49.7805 25.3924 48.8121 23.4369C47.8519 21.4814 47.3717 19.1489 47.3717 16.4394C47.3717 13.7216 47.8559 11.3891 48.8242 9.44188C49.7926 7.48639 51.1159 5.98662 52.7944 4.94259C54.4728 3.89027 56.3813 3.36411 58.5197 3.36411C59.835 3.36411 61.0615 3.55883 62.1993 3.94827C63.3452 4.32943 64.3741 4.89287 65.2859 5.63861C66.1978 6.37607 66.9522 7.27924 67.5494 8.34813C68.1465 9.40874 68.55 10.6226 68.7598 11.9898Z" fill="white"/>
<path d="M75.8823 17.8314V29.1667H72.2631V3.71212H75.8338V13.183H76.0638C76.4996 12.1555 77.1653 11.3394 78.061 10.7345C78.9567 10.1296 80.1268 9.82718 81.5712 9.82718C82.8462 9.82718 83.9598 10.0965 84.912 10.6351C85.8722 11.1736 86.6146 11.9774 87.1392 13.0463C87.6717 14.1069 87.938 15.4326 87.938 17.0236V29.1667H84.3189V17.471C84.3189 16.0707 83.9679 14.9852 83.2658 14.2146C82.5638 13.4357 81.5874 13.0463 80.3366 13.0463C79.4812 13.0463 78.7146 13.2327 78.0368 13.6056C77.367 13.9785 76.8385 14.5253 76.4512 15.2462C76.0719 15.9588 75.8823 16.8205 75.8823 17.8314Z" fill="white"/>
<path d="M92.0859 29.1667V10.0758H95.705V29.1667H92.0859ZM93.9136 7.13009C93.2842 7.13009 92.7435 6.91465 92.2917 6.48378C91.8478 6.04462 91.6259 5.52261 91.6259 4.91773C91.6259 4.30457 91.8478 3.78255 92.2917 3.35168C92.7435 2.91252 93.2842 2.69294 93.9136 2.69294C94.543 2.69294 95.0797 2.91252 95.5235 3.35168C95.9754 3.78255 96.2013 4.30457 96.2013 4.91773C96.2013 5.52261 95.9754 6.04462 95.5235 6.48378C95.0797 6.91465 94.543 7.13009 93.9136 7.13009Z" fill="white"/>
<path d="M99.8922 29.1667V10.0758H103.39V13.1084H103.584C103.923 12.081 104.52 11.2731 105.375 10.6848C106.239 10.0882 107.215 9.78989 108.305 9.78989C108.531 9.78989 108.797 9.79818 109.104 9.81475C109.418 9.83132 109.664 9.85203 109.842 9.87689V13.4316C109.697 13.3902 109.438 13.3446 109.067 13.2949C108.696 13.2369 108.325 13.2079 107.954 13.2079C107.098 13.2079 106.336 13.3943 105.666 13.7672C105.004 14.1317 104.48 14.6413 104.092 15.2959C103.705 15.9422 103.511 16.6797 103.511 17.5083V29.1667H99.8922Z" fill="white"/>
<path d="M119.458 29.552C117.715 29.552 116.194 29.1418 114.895 28.3215C113.595 27.5012 112.587 26.3536 111.868 24.8787C111.15 23.4038 110.791 21.6803 110.791 19.7082C110.791 17.7279 111.15 15.9961 111.868 14.5129C112.587 13.0297 113.595 11.878 114.895 11.0576C116.194 10.2373 117.715 9.82718 119.458 9.82718C121.201 9.82718 122.722 10.2373 124.021 11.0576C125.32 11.878 126.329 13.0297 127.047 14.5129C127.765 15.9961 128.124 17.7279 128.124 19.7082C128.124 21.6803 127.765 23.4038 127.047 24.8787C126.329 26.3536 125.32 27.5012 124.021 28.3215C122.722 29.1418 121.201 29.552 119.458 29.552ZM119.47 26.4323C120.6 26.4323 121.536 26.1257 122.278 25.5125C123.02 24.8994 123.569 24.0832 123.924 23.064C124.287 22.0449 124.469 20.9221 124.469 19.6958C124.469 18.4777 124.287 17.3591 123.924 16.34C123.569 15.3125 123.02 14.488 122.278 13.8666C121.536 13.2451 120.6 12.9344 119.47 12.9344C118.332 12.9344 117.388 13.2451 116.638 13.8666C115.895 14.488 115.342 15.3125 114.979 16.34C114.624 17.3591 114.447 18.4777 114.447 19.6958C114.447 20.9221 114.624 22.0449 114.979 23.064C115.342 24.0832 115.895 24.8994 116.638 25.5125C117.388 26.1257 118.332 26.4323 119.47 26.4323Z" fill="white"/>
<path d="M135.102 17.8314V29.1667H131.482V10.0758H134.956V13.183H135.186C135.614 12.1721 136.284 11.3601 137.196 10.7469C138.116 10.1338 139.273 9.82718 140.67 9.82718C141.936 9.82718 143.046 10.1006 143.998 10.6475C144.95 11.1861 145.689 11.9898 146.213 13.0587C146.738 14.1276 147 15.4492 147 17.0236V29.1667H143.381V17.471C143.381 16.0872 143.03 15.0059 142.328 14.227C141.626 13.4399 140.661 13.0463 139.435 13.0463C138.596 13.0463 137.849 13.2327 137.196 13.6056C136.55 13.9785 136.038 14.5253 135.658 15.2462C135.287 15.9588 135.102 16.8205 135.102 17.8314Z" fill="white"/>
</svg>
