<svg width="201" height="27" viewBox="0 0 201 27" fill="none" xmlns="http://www.w3.org/2000/svg">
<path d="M11.62 25.7494H6.97917L0 6.52802H3.99324L9.28158 21.7963L14.5699 6.52802H18.5991L11.62 25.7494Z" fill="white"/>
<path d="M28.3908 26.1846C26.5681 26.1846 24.9732 25.7736 23.6061 24.9516C22.2391 24.1295 21.1718 22.969 20.4044 21.4699C19.6609 19.9467 19.2891 18.1697 19.2891 16.1387C19.2891 14.1078 19.6609 12.3428 20.4044 10.8438C21.1718 9.32056 22.2391 8.14794 23.6061 7.32589C24.9732 6.50384 26.5681 6.09282 28.3908 6.09282C30.1896 6.09282 31.7725 6.50384 33.1395 7.32589C34.5066 8.14794 35.5619 9.32056 36.3054 10.8438C37.0728 12.3428 37.4566 14.1078 37.4566 16.1387C37.4566 18.1697 37.0728 19.9467 36.3054 21.4699C35.5619 22.969 34.5066 24.1295 33.1395 24.9516C31.7725 25.7736 30.1896 26.1846 28.3908 26.1846ZM28.3908 22.8481C29.9977 22.8481 31.2449 22.2557 32.1322 21.071C33.0436 19.8863 33.4993 18.2422 33.4993 16.1387C33.4993 14.0352 33.0436 12.3912 32.1322 11.2064C31.2449 10.0217 29.9977 9.42937 28.3908 9.42937C26.7839 9.42937 25.5248 10.0217 24.6134 11.2064C23.7021 12.367 23.2464 14.0111 23.2464 16.1387C23.2464 18.2664 23.7021 19.9226 24.6134 21.1073C25.5248 22.2678 26.7839 22.8481 28.3908 22.8481Z" fill="white"/>
<path d="M44.1909 6.52802V25.7494H40.3776V6.52802H44.1909ZM44.2989 0.0362663V3.69921H40.3056V0.0362663H44.2989Z" fill="white"/>
<path d="M61.5987 0H65.412V25.7494H61.8505L61.7426 22.9931C61.191 23.9844 60.3875 24.7702 59.3322 25.3505C58.277 25.9066 57.1018 26.1846 55.8067 26.1846C54.1758 26.1846 52.7488 25.7736 51.5256 24.9516C50.3025 24.1295 49.3671 22.969 48.7196 21.4699C48.072 19.9467 47.7483 18.1697 47.7483 16.1387C47.7483 14.1078 48.072 12.3428 48.7196 10.8438C49.3671 9.32056 50.3025 8.14794 51.5256 7.32589C52.7488 6.50384 54.1758 6.09282 55.8067 6.09282C57.0538 6.09282 58.193 6.35878 59.2243 6.89069C60.2556 7.4226 61.0471 8.16003 61.5987 9.10296V0ZM61.2389 19.6929C61.6706 18.6774 61.8865 17.4927 61.8865 16.1387C61.8865 14.7606 61.6706 13.5517 61.2389 12.512C60.8312 11.4724 60.2436 10.6745 59.4761 10.1184C58.7087 9.56234 57.8093 9.2843 56.778 9.2843C55.2191 9.2843 53.9839 9.91292 53.0726 11.1702C52.1612 12.4032 51.7055 14.0594 51.7055 16.1387C51.7055 18.1938 52.1612 19.8379 53.0726 21.071C54.0079 22.2799 55.2431 22.8843 56.778 22.8843C57.8093 22.8843 58.7087 22.6063 59.4761 22.0502C60.2436 21.4941 60.8312 20.7083 61.2389 19.6929Z" fill="white"/>
<path d="M72.86 0V10.8438L72.3204 10.6624C72.6801 9.09088 73.4116 7.94243 74.5149 7.21709C75.6181 6.46758 76.9372 6.09282 78.4721 6.09282C80.4388 6.09282 81.9977 6.75771 83.1489 8.08749C84.3241 9.3931 84.9117 11.1581 84.9117 13.3824V25.7494H81.0983V14.7606C81.0983 12.9956 80.7985 11.6779 80.1989 10.8075C79.5993 9.9371 78.664 9.5019 77.3929 9.5019C76.0018 9.5019 74.8986 9.96128 74.0832 10.88C73.2677 11.7746 72.86 13.0681 72.86 14.7606V25.7494H69.0466V0H72.86Z" fill="white"/>
<path d="M88.4041 12.2944C88.7878 10.3602 89.6872 8.8491 91.1022 7.76109C92.5412 6.64891 94.3639 6.09282 96.5704 6.09282C99.1606 6.09282 101.139 6.79398 102.506 8.19629C103.897 9.59861 104.593 11.6175 104.593 14.2528V21.3974C104.593 21.881 104.689 22.2315 104.881 22.4491C105.097 22.6426 105.396 22.7393 105.78 22.7393H106.536V25.7494H105.348L104.917 25.7857C103.885 25.7615 103.01 25.5439 102.29 25.1329C101.571 24.6977 101.175 23.9119 101.103 22.7755C100.624 23.7668 99.8561 24.5889 98.8009 25.2417C97.7456 25.8703 96.4625 26.1846 94.9515 26.1846C92.9849 26.1846 91.342 25.689 90.0229 24.6977C88.7278 23.7064 88.0803 22.3766 88.0803 20.7083C88.0803 19.4753 88.3681 18.484 88.9437 17.7345C89.5193 16.9849 90.3108 16.4047 91.3181 15.9937C92.3254 15.5826 93.6564 15.22 95.3113 14.9056L100.78 13.8176C100.756 12.2703 100.396 11.1218 99.7003 10.3723C99.0047 9.59861 97.9615 9.21176 96.5704 9.21176C95.4672 9.21176 94.5558 9.5019 93.8363 10.0822C93.1168 10.6383 92.6251 11.4603 92.3613 12.5483L88.4041 12.2944ZM92.0376 20.6358C92.0376 21.3853 92.3493 22.0019 92.9729 22.4854C93.6205 22.969 94.5558 23.2107 95.779 23.2107C96.7383 23.1866 97.6017 22.9448 98.3692 22.4854C99.1366 22.026 99.7362 21.337 100.168 20.4182C100.624 19.4753 100.851 18.3389 100.851 17.0091V16.7553L96.7863 17.4806C96.5944 17.5048 96.4025 17.541 96.2107 17.5894C95.2274 17.7586 94.4599 17.94 93.9083 18.1334C93.3566 18.3026 92.901 18.5928 92.5412 19.0038C92.2054 19.3906 92.0376 19.9346 92.0376 20.6358Z" fill="white"/>
<path d="M120.496 12.5846C120.304 11.5933 119.8 10.7954 118.985 10.191C118.169 9.58652 117.246 9.2843 116.215 9.2843C115.207 9.2843 114.368 9.53817 113.697 10.0459C113.025 10.5295 112.689 11.1823 112.689 12.0043C112.713 12.778 113.109 13.3824 113.876 13.8176C114.668 14.2287 115.687 14.5672 116.934 14.8331C118.661 15.1474 120.076 15.5343 121.179 15.9937C122.283 16.4289 123.146 17.0333 123.77 17.807C124.393 18.5565 124.705 19.5357 124.705 20.7446C124.705 21.9293 124.345 22.9327 123.626 23.7547C122.93 24.5768 121.983 25.1933 120.784 25.6044C119.608 25.9912 118.313 26.1846 116.898 26.1846C115.291 26.1846 113.852 25.9187 112.581 25.3868C111.31 24.8548 110.291 24.1053 109.523 23.1382C108.78 22.1469 108.36 20.9985 108.264 19.6929L112.186 19.439C112.329 20.1643 112.593 20.793 112.977 21.3249C113.385 21.8568 113.912 22.2678 114.56 22.5579C115.231 22.8481 115.999 22.9931 116.862 22.9931C117.894 22.9931 118.793 22.7997 119.56 22.4129C120.352 22.0019 120.748 21.3853 120.748 20.5633C120.748 20.0072 120.58 19.5599 120.244 19.2214C119.908 18.8829 119.489 18.629 118.985 18.4598C118.505 18.2906 117.858 18.1213 117.042 17.9521C116.802 17.8795 116.539 17.8191 116.251 17.7707C114.62 17.4081 113.289 17.0333 112.258 16.6465C111.226 16.2354 110.375 15.6673 109.703 14.9419C109.056 14.2166 108.732 13.2736 108.732 12.1131C108.732 10.88 109.044 9.81621 109.667 8.92163C110.315 8.00287 111.214 7.30171 112.365 6.81816C113.541 6.3346 114.92 6.09282 116.503 6.09282C118.589 6.09282 120.352 6.661 121.791 7.79736C123.23 8.93372 124.105 10.4569 124.417 12.367L120.496 12.5846Z" fill="white"/>
<path d="M131.445 0V10.8438L130.905 10.6624C131.265 9.09088 131.996 7.94243 133.099 7.21709C134.203 6.46758 135.522 6.09282 137.057 6.09282C139.023 6.09282 140.582 6.75771 141.734 8.08749C142.909 9.3931 143.496 11.1581 143.496 13.3824V25.7494H139.683V14.7606C139.683 12.9956 139.383 11.6779 138.784 10.8075C138.184 9.9371 137.249 9.5019 135.978 9.5019C134.586 9.5019 133.483 9.96128 132.668 10.88C131.852 11.7746 131.445 13.0681 131.445 14.7606V25.7494H127.631V0H131.445Z" fill="white"/>
<path d="M199.346 3.65586C200.259 3.65586 201 4.4024 201 5.3233V13.6605C201 14.5814 200.259 15.3279 199.346 15.3279H189.422V25.3326C189.422 26.2535 188.681 27 187.768 27H179.498C178.584 27 177.844 26.2535 177.844 25.3326V15.3279L189.422 3.65586H199.346Z" fill="#FF3E03"/>
<path d="M166.265 27L177.844 15.3279V5.3233C177.844 4.4024 177.103 3.65586 176.19 3.65586H167.919C167.006 3.65586 166.265 4.4024 166.265 5.3233V15.3279H156.341C155.428 15.3279 154.687 16.0745 154.687 16.9954V25.3326C154.687 26.2535 155.428 27 156.341 27H166.265Z" fill="#FF3E03"/>
</svg>
