<svg width="129" height="20" viewBox="0 0 129 20" fill="none" xmlns="http://www.w3.org/2000/svg">
<path d="M7.19999 15.904L10.56 5.70396H14.136L9.21599 19H5.13599L0.23999 5.70396H3.83999L7.19999 15.904Z" fill="white"/>
<path d="M21.2072 19.216C19.9272 19.216 18.7752 18.936 17.7512 18.376C16.7272 17.8 15.9192 16.992 15.3272 15.952C14.7512 14.912 14.4632 13.712 14.4632 12.352C14.4632 10.992 14.7592 9.79196 15.3512 8.75196C15.9592 7.71196 16.7832 6.91196 17.8232 6.35196C18.8632 5.77596 20.0232 5.48796 21.3032 5.48796C22.5832 5.48796 23.7432 5.77596 24.7832 6.35196C25.8232 6.91196 26.6392 7.71196 27.2312 8.75196C27.8392 9.79196 28.1432 10.992 28.1432 12.352C28.1432 13.712 27.8312 14.912 27.2072 15.952C26.5992 16.992 25.7672 17.8 24.7112 18.376C23.6712 18.936 22.5032 19.216 21.2072 19.216ZM21.2072 16.288C21.8152 16.288 22.3832 16.144 22.9112 15.856C23.4552 15.552 23.8872 15.104 24.2072 14.512C24.5272 13.92 24.6872 13.2 24.6872 12.352C24.6872 11.088 24.3512 10.12 23.6792 9.44796C23.0232 8.75996 22.2152 8.41596 21.2552 8.41596C20.2952 8.41596 19.4872 8.75996 18.8312 9.44796C18.1912 10.12 17.8712 11.088 17.8712 12.352C17.8712 13.616 18.1832 14.592 18.8072 15.28C19.4472 15.952 20.2472 16.288 21.2072 16.288Z" fill="white"/>
<path d="M31.5919 4.11996C30.9999 4.11996 30.5039 3.93596 30.1039 3.56796C29.7199 3.18396 29.5279 2.71196 29.5279 2.15196C29.5279 1.59196 29.7199 1.12796 30.1039 0.75996C30.5039 0.37596 30.9999 0.18396 31.5919 0.18396C32.1839 0.18396 32.6719 0.37596 33.0559 0.75996C33.4559 1.12796 33.6559 1.59196 33.6559 2.15196C33.6559 2.71196 33.4559 3.18396 33.0559 3.56796C32.6719 3.93596 32.1839 4.11996 31.5919 4.11996ZM33.2479 5.70396V19H29.8879V5.70396H33.2479Z" fill="white"/>
<path d="M34.9836 12.304C34.9836 10.96 35.2476 9.76796 35.7756 8.72796C36.3196 7.68796 37.0556 6.88796 37.9836 6.32796C38.9116 5.76796 39.9436 5.48796 41.0796 5.48796C41.9436 5.48796 42.7676 5.67996 43.5516 6.06396C44.3356 6.43196 44.9596 6.92796 45.4236 7.55196V1.23996H48.8316V19H45.4236V17.032C45.0076 17.688 44.4236 18.216 43.6716 18.616C42.9196 19.016 42.0476 19.216 41.0556 19.216C39.9356 19.216 38.9116 18.928 37.9836 18.352C37.0556 17.776 36.3196 16.968 35.7756 15.928C35.2476 14.872 34.9836 13.664 34.9836 12.304ZM45.4476 12.352C45.4476 11.536 45.2876 10.84 44.9676 10.264C44.6476 9.67196 44.2156 9.22396 43.6716 8.91996C43.1276 8.59996 42.5436 8.43996 41.9196 8.43996C41.2956 8.43996 40.7196 8.59196 40.1916 8.89596C39.6636 9.19996 39.2316 9.64796 38.8956 10.24C38.5756 10.816 38.4156 11.504 38.4156 12.304C38.4156 13.104 38.5756 13.808 38.8956 14.416C39.2316 15.008 39.6636 15.464 40.1916 15.784C40.7356 16.104 41.3116 16.264 41.9196 16.264C42.5436 16.264 43.1276 16.112 43.6716 15.808C44.2156 15.488 44.6476 15.04 44.9676 14.464C45.2876 13.872 45.4476 13.168 45.4476 12.352Z" fill="white"/>
<path d="M58.8812 5.51196C59.8892 5.51196 60.7852 5.73596 61.5692 6.18396C62.3532 6.61596 62.9612 7.26396 63.3932 8.12796C63.8412 8.97596 64.0652 9.99996 64.0652 11.2V19H60.7052V11.656C60.7052 10.6 60.4412 9.79196 59.9132 9.23196C59.3852 8.65596 58.6652 8.36796 57.7532 8.36796C56.8252 8.36796 56.0892 8.65596 55.5452 9.23196C55.0172 9.79196 54.7532 10.6 54.7532 11.656V19H51.3932V1.23996H54.7532V7.35996C55.1852 6.78396 55.7612 6.33596 56.4812 6.01596C57.2012 5.67996 58.0012 5.51196 58.8812 5.51196Z" fill="white"/>
<path d="M65.6764 12.304C65.6764 10.96 65.9404 9.76796 66.4684 8.72796C67.0124 7.68796 67.7404 6.88796 68.6524 6.32796C69.5804 5.76796 70.6124 5.48796 71.7484 5.48796C72.7404 5.48796 73.6044 5.68796 74.3404 6.08796C75.0924 6.48796 75.6924 6.99196 76.1404 7.59996V5.70396H79.5244V19H76.1404V17.056C75.7084 17.68 75.1084 18.2 74.3404 18.616C73.5884 19.016 72.7164 19.216 71.7244 19.216C70.6044 19.216 69.5804 18.928 68.6524 18.352C67.7404 17.776 67.0124 16.968 66.4684 15.928C65.9404 14.872 65.6764 13.664 65.6764 12.304ZM76.1404 12.352C76.1404 11.536 75.9804 10.84 75.6604 10.264C75.3404 9.67196 74.9084 9.22396 74.3644 8.91996C73.8204 8.59996 73.2364 8.43996 72.6124 8.43996C71.9884 8.43996 71.4124 8.59196 70.8844 8.89596C70.3564 9.19996 69.9244 9.64796 69.5884 10.24C69.2684 10.816 69.1084 11.504 69.1084 12.304C69.1084 13.104 69.2684 13.808 69.5884 14.416C69.9244 15.008 70.3564 15.464 70.8844 15.784C71.4284 16.104 72.0044 16.264 72.6124 16.264C73.2364 16.264 73.8204 16.112 74.3644 15.808C74.9084 15.488 75.3404 15.04 75.6604 14.464C75.9804 13.872 76.1404 13.168 76.1404 12.352Z" fill="white"/>
<path d="M87.174 19.216C86.086 19.216 85.11 19.024 84.246 18.64C83.382 18.24 82.694 17.704 82.182 17.032C81.686 16.36 81.414 15.616 81.366 14.8H84.75C84.814 15.312 85.062 15.736 85.494 16.072C85.942 16.408 86.494 16.576 87.15 16.576C87.79 16.576 88.286 16.448 88.638 16.192C89.006 15.936 89.19 15.608 89.19 15.208C89.19 14.776 88.966 14.456 88.518 14.248C88.086 14.024 87.39 13.784 86.43 13.528C85.438 13.288 84.622 13.04 83.982 12.784C83.358 12.528 82.814 12.136 82.35 11.608C81.902 11.08 81.678 10.368 81.678 9.47196C81.678 8.73596 81.886 8.06396 82.302 7.45596C82.734 6.84796 83.342 6.36796 84.126 6.01596C84.926 5.66396 85.862 5.48796 86.934 5.48796C88.518 5.48796 89.782 5.88796 90.726 6.68796C91.67 7.47196 92.19 8.53596 92.286 9.87996H89.07C89.022 9.35196 88.798 8.93596 88.398 8.63196C88.014 8.31196 87.494 8.15196 86.838 8.15196C86.23 8.15196 85.758 8.26396 85.422 8.48796C85.102 8.71196 84.942 9.02396 84.942 9.42396C84.942 9.87196 85.166 10.216 85.614 10.456C86.062 10.68 86.758 10.912 87.702 11.152C88.662 11.392 89.454 11.64 90.078 11.896C90.702 12.152 91.238 12.552 91.686 13.096C92.15 13.624 92.39 14.328 92.406 15.208C92.406 15.976 92.19 16.664 91.758 17.272C91.342 17.88 90.734 18.36 89.934 18.712C89.15 19.048 88.23 19.216 87.174 19.216Z" fill="white"/>
<path d="M101.932 5.51196C102.94 5.51196 103.836 5.73596 104.62 6.18396C105.404 6.61596 106.012 7.26396 106.444 8.12796C106.892 8.97596 107.116 9.99996 107.116 11.2V19H103.756V11.656C103.756 10.6 103.492 9.79196 102.964 9.23196C102.436 8.65596 101.716 8.36796 100.804 8.36796C99.8761 8.36796 99.1401 8.65596 98.5961 9.23196C98.0681 9.79196 97.8041 10.6 97.8041 11.656V19H94.4441V1.23996H97.8041V7.35996C98.2361 6.78396 98.8121 6.33596 99.5321 6.01596C100.252 5.67996 101.052 5.51196 101.932 5.51196Z" fill="white"/>
<path d="M124.351 8.22396L123.559 11.92H126.607V14.92H122.911L122.047 19H118.855L119.719 14.92H115.351L114.487 19H111.319L112.183 14.92H108.559V11.92H112.831L113.623 8.22396H110.023V5.22396H114.271L115.111 1.23996H118.279L117.439 5.22396H121.807L122.647 1.23996H125.839L124.999 5.22396H128.071V8.22396H124.351ZM121.159 8.22396H116.791L115.999 11.92H120.367L121.159 8.22396Z" fill="white"/>
</svg>
